<?xml version="1.0" encoding="UTF-8" standalone="no"?>
<svg
   width="1024"
   height="1024"
   version="1.1"
   id="svg18"
   sodipodi:docname="logo_square.svg"
   inkscape:version="1.4.2 (ebf0e940, 2025-05-08)"
   xmlns:inkscape="http://www.inkscape.org/namespaces/inkscape"
   xmlns:sodipodi="http://sodipodi.sourceforge.net/DTD/sodipodi-0.dtd"
   xmlns="http://www.w3.org/2000/svg"
   xmlns:svg="http://www.w3.org/2000/svg">
  <defs
     id="defs18" />
  <sodipodi:namedview
     id="namedview18"
     pagecolor="#505050"
     bordercolor="#ffffff"
     borderopacity="1"
     inkscape:showpageshadow="0"
     inkscape:pageopacity="0"
     inkscape:pagecheckerboard="1"
     inkscape:deskcolor="#d1d1d1"
     inkscape:zoom="0.18702334"
     inkscape:cx="371.61137"
     inkscape:cy="740.54928"
     inkscape:window-width="976"
     inkscape:window-height="1186"
     inkscape:window-x="0"
     inkscape:window-y="810"
     inkscape:window-maximized="0"
     inkscape:current-layer="svg18" />
  <path
     id="path56"
     d="m 123.66681,350.78464 c -1.15258,0.028 -2.27854,0.1017 -3.42841,0.18822 -9.99043,0.92592 -19.34166,2.63745 -28.726601,6.29205 -9.911688,3.85962 -68.944439,37.10036 -74.224066,43.36838 -1.073844,1.27332 -1.432938,3.40978 -1.158707,4.99543 0.176485,1.01819 0.721798,1.75117 1.601509,2.32011 6.595121,4.27232 23.943573,-2.90216 28.681526,8.86405 1.267979,3.14816 1.374061,7.65911 1.519322,11.0462 1.198742,27.90099 0.249903,56.28911 0.278411,84.23359 0.02308,23.68836 1.258152,48.08759 -0.495842,71.6918 -0.492801,6.62367 -1.293555,12.456 -4.194703,18.49173 -5.194099,10.80639 -17.655577,16.97949 -19.334903,20.97354 0.52674,1.33995 0.630718,1.52301 1.776515,2.38643 10.509021,1.59922 22.271389,-0.77174 32.852361,-1.3311 10.132973,-0.53769 19.946575,0.22345 29.99402,1.43708 5.233469,0.63261 13.648848,2.60074 18.168228,-0.66283 0.18599,-1.5572 -0.56862,-1.98832 -1.53522,-3.18972 -4.33204,-5.3816 -9.799198,-9.49283 -13.907246,-15.19324 -0.222644,-0.30967 -0.456201,-0.6105 -0.676128,-0.92282 -3.142797,-4.48413 -4.289572,-11.73305 -4.937138,-17.10227 -1.587009,-13.17263 -1.051416,-26.7391 -1.047344,-39.98498 l 0.04236,-63.15128 c 6.170198,3.87716 12.260597,7.66752 17.749286,12.50185 37.68641,33.1915 55.37561,89.82552 81.5131,131.63493 17.23854,25.97044 38.5931,51.59245 70.82747,58.01788 20.33247,4.05242 41.75492,1.19329 59.00431,-10.57424 4.2886,-2.9256 15.16229,-10.67138 16.08679,-15.9728 0.11276,-0.6475 0.004,-1.01465 -0.10347,-1.61469 -5.5525,-1.23677 -16.23156,3.09569 -22.10309,4.33512 -39.78793,8.40344 -66.43544,-8.21553 -87.46842,-41.25757 -15.51849,-24.38082 -24.55596,-52.29699 -40.04594,-76.69269 -12.66215,-19.94282 -30.70386,-35.58384 -46.0092,-53.33006 22.04571,0.0781 45.066,-6.68898 61.09901,-22.50613 11.87068,-11.71049 17.10287,-27.01413 17.02278,-43.51415 -0.0937,-19.45141 -8.74133,-37.94536 -22.57508,-51.42884 -17.86299,-17.41238 -41.57565,-24.95447 -66.24558,-24.34898 z m -8.54586,19.19967 c 7.78571,-0.24703 16.38961,2.24228 23.43681,5.45146 13.90296,6.33185 25.91323,17.42934 31.2906,31.93233 4.6728,12.60105 4.22995,27.94315 -1.57234,40.10157 -5.79551,12.14501 -15.64605,20.34019 -28.17242,24.85277 -20.60806,5.32574 -37.46264,-1.19315 -55.933862,-10.07577 -0.247079,-12.25084 -0.08077,-24.54294 -0.08757,-36.79776 -0.0041,-11.00331 -0.58995,-22.40236 1.219704,-33.27935 0.828124,-4.98099 2.20532,-10.34932 5.517814,-14.28633 5.633954,-6.69841 16.188304,-7.41297 24.301204,-7.89892 z"
     style="fill:#332423;fill-opacity:1;stroke-width:1.35758" />
  <path
     fill="#332423"
     d="m 624.7588,471.20034 c 1.58022,0.0413 1.79879,0.15476 3.13328,1.01553 0.65844,1.6222 0.65979,2.91469 0.68559,4.61973 0.50094,31.79732 0.0815,63.66509 -0.019,95.46771 -0.0475,15.16818 0.63534,30.46813 0.24028,45.61067 -0.0407,1.56929 0.22808,5.04068 -0.91635,6.07508 -1.8979,1.71329 -4.28182,1.88972 -6.71324,1.66171 -12.51417,-1.16883 -22.31724,-6.93041 -30.07581,-16.54616 -11.81773,7.74504 -21.94256,14.73382 -36.34648,16.67247 -14.09982,1.89783 -29.34951,-1.56266 -40.69344,-10.31896 -30.92973,-23.87585 -16.15248,-71.03531 -20.76282,-104.33279 -2.13411,-15.41801 -8.52152,-17.13263 -19.59801,-25.50881 -0.33125,-0.311 -0.69372,-0.5906 -0.99239,-0.93138 -1.36165,-1.54762 -2.30517,-3.84061 -1.75943,-5.9013 0.37877,-1.42411 1.41596,-2.55226 2.62556,-3.33432 1.81915,-1.17693 4.04151,-1.87204 6.18649,-2.10698 4.67958,-0.51042 43.95842,-1.25844 45.90927,-0.57144 2.10832,0.74124 2.57804,3.18073 2.81834,5.16007 0.74259,6.1078 0.16018,12.71778 0.11408,18.88528 -0.17107,23.02185 -3.14959,70.84267 5.78871,89.72514 3.4211,7.22917 8.79576,13.48481 16.60184,16.02483 7.28748,2.3717 16.24344,1.98626 23.09378,-1.56118 7.91061,-4.09708 12.99339,-11.9792 15.56057,-20.30526 4.11347,-13.34228 4.63342,-62.64277 0.92588,-76.17239 -0.62178,-2.26587 -1.74721,-4.33069 -3.16995,-6.19064 -4.87371,-6.3656 -18.18071,-10.55243 -20.62978,-16.75251 -0.84848,-2.14898 -0.2946,-4.45553 0.71544,-6.41452 4.44336,-2.87534 29.33729,-1.47983 36.14284,-1.88162 7.05399,-0.4155 14.11204,-1.30605 21.1348,-2.08796 z"
     id="path58"
     style="stroke-width:1.35758" />
  <path
     fill="#332423"
     d="m 900.96584,423.20987 c 8.57448,-0.48876 67.44863,-0.9638 69.82982,0.40842 0.79553,0.45869 0.54031,0.59945 0.75752,1.60983 -2.57125,3.85299 -9.20438,6.39772 -12.73545,9.9378 -1.50012,1.50429 -2.97446,3.27875 -3.57993,5.27563 -3.26499,10.76718 -1.344,33.58091 -1.13223,45.44514 12.04853,-0.0914 24.879,1.09454 36.81891,-0.11202 9.59942,-0.97014 11.54082,-6.8287 17.31592,-12.73384 1.2164,-1.24532 1.9468,-1.80335 3.7483,-1.90137 2.8889,2.95066 1.401,42.24451 1.5164,48.91359 0.049,2.81505 0.8118,7.3064 -1.4336,9.45156 -5.9842,-0.031 -11.1688,-10.8515 -17.66075,-12.82317 -7.59295,-2.30596 -30.33104,-0.81685 -40.08525,-1.14612 l -0.35161,30.63159 c -0.0489,6.41526 -0.57561,13.27182 0.58377,19.61678 0.56066,3.06621 1.70104,6.34997 3.57449,8.95499 3.3315,4.63344 12.46122,7.83672 14.14056,12.58321 0.12764,0.35934 0.22943,0.72384 0.34482,1.08569 -5.1751,1.09086 -11.25297,0.47254 -16.56655,0.46621 l -34.69158,-0.0206 c -6.32496,0 -13.17259,-0.47622 -19.4256,0.31542 -0.87428,0.11202 -1.14172,-0.16464 -1.92233,-0.51145 l -0.6082,-1.78949 c 2.86449,-4.58554 8.72516,-6.24945 12.63499,-9.91393 1.97664,-1.85111 3.53649,-4.15957 4.27095,-6.68308 3.4211,-11.75619 1.57072,-40.76277 1.49469,-54.42784 -10.02029,-0.0604 -38.29052,-2.03594 -45.42596,3.72476 -3.22425,2.60251 -7.02819,8.91106 -10.74117,10.22301 l -1.2191,-0.70867 c -0.98697,-1.93025 -1.27477,-3.72741 -1.35079,-5.85989 -0.24437,-6.77358 0.33667,-13.58607 0.20091,-20.36583 -0.16698,-8.333 -1.39288,-17.69906 -0.51723,-25.95659 0.14798,-1.39743 0.4575,-2.4053 1.5042,-3.46093 5.56064,-0.79297 13.06941,10.41035 19.43509,12.04021 7.7803,1.99187 29.53822,0.51779 38.16156,0.41727 0.0625,-11.30634 1.85446,-35.62555 -2.11646,-45.94171 -0.85935,-2.23432 -2.76404,-4.1746 -4.58454,-5.78324 -2.57127,-2.27206 -10.23616,-6.38505 -11.27877,-9.21396 z"
     id="path59"
     style="stroke-width:1.30615" />
  <path
     fill="#332423"
     d="m 733.33936,467.02175 c 2.29702,-0.0899 4.59676,-0.10907 6.89514,-0.0575 15.00396,0.46694 27.97699,6.07376 38.27696,17.0865 3.47675,3.71842 7.81694,9.1012 7.37029,14.49621 -0.1887,2.29019 -1.31957,4.17461 -3.16587,5.52399 -1.54222,1.12814 -6.43358,3.39666 -8.29482,2.96082 -5.22939,-1.22174 -12.92551,-14.82476 -28.50237,-17.62669 -9.15959,-1.64682 -19.34822,-0.35168 -26.96425,5.26325 -4.81261,3.56498 -7.92419,8.97223 -8.59076,14.92527 -0.51589,4.61708 1.13765,9.20851 4.05644,12.78027 9.81666,12.01044 34.68616,6.43075 48.8077,8.05575 11.27199,1.29794 23.99929,5.71677 31.11572,15.03523 6.73631,8.82028 8.21472,22.3213 6.68337,33.06387 -2.01058,14.1012 -10.40992,25.36495 -21.61945,33.71681 -18.52281,13.80259 -42.98233,16.33037 -65.26021,13.14271 -11.31542,-1.53672 -22.04708,-5.39089 -31.44561,-11.97521 -5.25791,-3.68305 -15.78593,-13.19017 -16.52039,-19.8056 -0.20226,-1.81101 0.85257,-3.60301 1.98344,-4.95387 3.28127,-3.92064 10.62984,-8.61377 15.87689,-8.76323 6.8259,-0.19264 3.93833,10.38146 12.08788,17.31053 10.19135,8.66684 25.308,10.77249 38.21587,9.92793 9.66324,-0.63393 21.22982,-3.47802 27.70412,-11.13212 4.09989,-4.8451 5.73984,-10.90809 4.9375,-17.17066 -3.3315,-26.01393 -34.19063,-18.24442 -52.03058,-20.9868 -7.93776,-1.22041 -15.23612,-4.06185 -21.52985,-9.11757 -8.29073,-6.65345 -13.49976,-16.4076 -14.41885,-26.99806 -1.1458,-12.59294 3.57179,-24.75961 11.78787,-34.20159 10.47508,-12.03889 26.7538,-19.39702 42.54382,-20.5007 z"
     id="path60"
     style="stroke-width:1.35758" />
  <path
     fill="#332423"
     d="m 390.9619,436.72327 c 1.88569,0.056 2.87807,-0.0236 4.46916,1.12269 2.4192,4.01439 1.06977,30.16671 1.11321,36.43474 6.38741,0.21047 12.78161,0.13265 19.16224,-0.23495 6.81233,-0.44925 14.29938,-1.87071 21.03161,-0.94759 2.47216,2.07043 3.22833,6.21511 3.52972,9.30078 0.30001,3.0777 -0.45751,6.19196 -2.58484,8.49984 -6.11046,6.62766 -31.82981,4.00215 -41.26226,4.10665 l -0.39099,47.61992 c -0.08,10.5741 -0.64621,21.51211 0.60683,32.02254 0.55933,4.689 1.6101,9.29664 3.74557,13.54185 5.83215,11.59376 17.6078,16.54203 30.14098,13.70752 5.22261,-1.17973 12.15575,-5.73579 17.34308,-3.95337 1.2001,1.37119 1.67117,2.06217 1.67525,3.93833 0.0149,5.99107 -5.72764,10.6842 -9.78272,14.34824 -9.15009,7.07308 -18.96267,10.16965 -30.46545,10.44395 -12.79517,0.30407 -24.94687,-3.6098 -34.26801,-12.61608 -20.53067,-19.83286 -13.75635,-66.98835 -14.47315,-94.16564 -0.29867,-11.29647 -0.73445,-18.82559 -11.38874,-25.05823 -2.44906,-1.43089 -5.64889,-2.86458 -7.57394,-4.9661 -1.26662,-1.38328 -1.3793,-2.25084 -1.41867,-4.06598 3.5365,-6.87336 41.6139,-40.39341 50.79112,-49.07911 z"
     id="path61"
     style="stroke-width:1.35758" />
  <path
     fill="#332423"
     d="m 297.93513,470.41296 c 1.46212,-0.33531 2.407,-0.3449 3.88812,-0.10465 1.00188,1.11046 1.38472,2.03358 1.51505,3.53787 0.51589,5.97869 -0.42628,12.76391 -0.4385,18.84445 l -0.0407,55.77486 c 0,15.89719 -1.15122,33.41953 2.45857,48.96238 3.35459,14.43918 18.16849,17.08797 22.19643,25.81435 -0.12632,0.12971 -0.23486,0.27695 -0.3774,0.38971 -4.63207,3.66816 -60.83586,1.79465 -70.59414,1.75265 -0.28373,-0.0192 -0.56882,-0.0177 -0.84984,-0.056 -1.94542,-0.26472 -2.65271,-0.65443 -3.89489,-2.126 -0.4833,-4.71759 5.98013,-10.24423 8.57718,-14.12154 2.73009,-4.09575 4.60762,-8.69809 5.52264,-13.53507 2.73416,-14.04682 2.98803,-73.73555 0,-87.50954 -3.5012,-16.14569 -10.74388,-18.38031 -23.42368,-26.65199 -0.2783,-2.35946 -0.85256,-4.59143 0.30273,-6.78522 1.66441,-1.17162 2.41651,-1.16204 4.46509,-1.35616 7.35943,-0.69378 15.07999,-0.19957 22.49373,-0.38971 9.45555,-0.24157 18.82284,-1.25033 28.19964,-2.44082 z"
     id="path62"
     style="stroke-width:1.35758" />
  <path
     fill="#332423"
     d="m 280.57034,385.52628 c 14.10525,-1.79613 27.02398,8.10733 28.95445,22.19498 1.93048,14.08764 -7.84817,27.10006 -21.91676,29.16621 -14.26137,2.09342 -27.49099,-7.84807 -29.44726,-22.12851 -1.95762,-14.28043 8.11018,-27.41356 22.40957,-29.23268 z"
     id="path67"
     style="stroke-width:1.35758" />
</svg>
