<?xml version="1.0" encoding="UTF-8" standalone="no"?>
<svg
   width="734.94501"
   height="249.46855"
   viewBox="0 0 734.94501 249.46855"
   version="1.1"
   id="svg88"
   sodipodi:docname="logo.svg"
   inkscape:version="1.4.2 (ebf0e940, 2025-05-08)"
   xmlns:inkscape="http://www.inkscape.org/namespaces/inkscape"
   xmlns:sodipodi="http://sodipodi.sourceforge.net/DTD/sodipodi-0.dtd"
   xmlns="http://www.w3.org/2000/svg"
   xmlns:svg="http://www.w3.org/2000/svg">
  <defs
     id="defs88" />
  <sodipodi:namedview
     id="namedview88"
     pagecolor="#ffffff"
     bordercolor="#000000"
     borderopacity="0.25"
     inkscape:showpageshadow="2"
     inkscape:pageopacity="0.0"
     inkscape:pagecheckerboard="0"
     inkscape:deskcolor="#d1d1d1"
     inkscape:zoom="0.8125"
     inkscape:cx="307.07692"
     inkscape:cy="241.84615"
     inkscape:window-width="1872"
     inkscape:window-height="1186"
     inkscape:window-x="593"
     inkscape:window-y="861"
     inkscape:window-maximized="0"
     inkscape:current-layer="svg88" />
  <path
     id="path56"
     d="m 102.02712,9.8689901 c -0.78198,0.019342 -1.5459,0.068803 -2.326041,0.1277238 -6.778102,0.6281651 -13.122531,1.7894131 -19.489839,4.2689151 -6.724681,2.618582 -46.776027,25.171094 -50.358041,29.423642 -0.72856,0.863957 -0.972191,2.313424 -0.786136,3.389226 0.119738,0.690797 0.489711,1.188153 1.086559,1.574078 4.474524,2.898585 16.244751,-1.968956 19.459261,6.013896 0.860273,2.135945 0.932245,5.19638 1.030799,7.494432 0.813298,18.929686 0.169549,38.189917 0.188891,57.149067 0.01566,16.07163 0.853605,32.62553 -0.336409,48.64005 -0.334346,4.49387 -0.877625,8.45084 -2.845937,12.54588 -3.523987,7.33166 -11.978599,11.51994 -13.117954,14.22971 0.357372,0.90908 0.427917,1.03325 1.205294,1.61905 7.129948,1.08501 15.110241,-0.5236 22.289005,-0.90308 6.874814,-0.36474 13.532948,0.15161 20.349735,0.97504 3.550698,0.42922 9.260192,1.7645 12.326411,-0.44973 0.126186,-1.05646 -0.385787,-1.349 -1.041584,-2.16414 -2.939112,-3.6511 -6.648362,-6.44045 -9.435507,-10.308 -0.151055,-0.21 -0.309514,-0.41419 -0.458726,-0.62603 -2.132261,-3.04227 -2.910302,-7.96043 -3.349649,-11.60323 -1.076722,-8.93708 -0.713344,-18.14138 -0.710581,-27.12819 l 0.02874,-42.84562 c 4.186231,2.63056 8.318322,5.20215 12.04218,8.48206 25.568709,22.51907 37.570119,60.94295 55.303349,89.30893 11.69566,17.61993 26.18387,35.00346 48.05359,39.36285 13.79476,2.74937 28.32903,0.80956 40.03205,-7.17423 2.90964,-1.98489 10.287,-7.24012 10.91424,-10.83687 0.0765,-0.43935 0.003,-0.68845 -0.0702,-1.09556 -3.76715,-0.83909 -11.01246,2.10035 -14.99606,2.94128 -26.99451,5.70138 -45.07377,-5.57393 -59.3438,-27.99168 -10.52867,-16.54137 -16.66023,-35.48136 -27.16956,-52.03286 -8.59076,-13.53042 -20.83133,-24.14217 -31.21539,-36.1823 14.95713,0.0534 30.57547,-4.53819 41.45322,-15.269494 8.05378,-7.945089 11.60361,-18.327993 11.54927,-29.522592 C 162.2247,48.084224 156.35766,35.536758 146.97202,26.388761 134.8527,14.575207 118.76461,9.458196 102.02706,9.8689901 Z M 96.229096,22.895196 c 5.282294,-0.167633 11.119694,1.521256 15.900934,3.698649 9.4326,4.295828 17.58108,11.825048 21.22941,21.664764 3.17031,8.549306 2.86985,18.958294 -1.06677,27.207334 -3.93202,8.239829 -10.61521,13.799955 -19.11385,16.861568 -13.981737,3.61333 -25.41689,-0.809495 -37.948873,-6.83601 -0.167633,-8.311672 -0.0548,-16.651409 -0.05941,-24.965844 -0.0028,-7.465216 -0.400257,-15.199077 0.82752,-22.578634 0.561849,-3.37938 1.496221,-7.021668 3.743615,-9.692751 3.822411,-4.544524 10.983114,-5.029335 16.487386,-5.359076 z"
     style="stroke-width:0.921063;fill:#332423;fill-opacity:1" />
  <path
     fill="#332423"
     d="m 441.99786,91.566197 c 1.07212,0.02855 1.22041,0.105001 2.12581,0.688955 0.44672,1.10067 0.44764,1.977522 0.46514,3.134378 0.33987,21.57313 0.0553,43.19417 -0.0129,64.77099 -0.0322,10.29103 0.43105,20.67141 0.16302,30.94495 -0.0276,1.06475 0.15474,3.41991 -0.62171,4.12176 -1.28765,1.16238 -2.90504,1.28212 -4.55466,1.12738 -8.49036,-0.79304 -15.14135,-4.70203 -20.40523,-11.22592 -8.01785,5.25467 -14.88714,9.9963 -24.65962,11.31158 -9.56616,1.28764 -19.91246,-1.06015 -27.60886,-7.001 -20.98458,-16.19874 -10.95881,-48.19462 -14.08674,-70.78553 -1.44791,-10.46052 -5.78151,-11.62382 -13.29646,-17.30678 -0.22474,-0.21092 -0.47066,-0.40066 -0.6733,-0.63184 -0.92382,-1.050016 -1.56396,-2.605692 -1.1937,-4.003865 0.25698,-0.966195 0.96067,-1.731599 1.78134,-2.262131 1.23422,-0.798561 2.742,-1.270146 4.19728,-1.42949 3.17491,-0.346319 29.82402,-0.853825 31.14759,-0.387767 1.43041,0.5029 1.7491,2.158051 1.91213,3.50096 0.50382,4.143863 0.10868,8.628513 0.0774,12.812903 -0.11606,15.61939 -2.13687,48.06383 3.92741,60.87489 2.32108,4.90467 5.96757,9.14892 11.26368,10.87223 4.94426,1.6091 11.02052,1.34752 15.6682,-1.05922 5.36703,-2.77977 8.81549,-8.12746 10.55722,-13.77634 2.79082,-9.05221 3.14359,-42.50061 0.62817,-51.67992 -0.42185,-1.53725 -1.18541,-2.93819 -2.15068,-4.20005 -3.30662,-4.31886 -12.33488,-7.15942 -13.99648,-11.365912 -0.57566,-1.458043 -0.19987,-3.022929 0.4854,-4.352023 3.01464,-1.950811 19.90417,-1.003958 24.52146,-1.276593 4.78585,-0.281845 9.57445,-0.886063 14.33911,-1.416595 z"
     id="path58"
     style="stroke-width:0.921063" />
  <path
     fill="#332423"
     d="m 629.39322,59.00664 c 5.81744,-0.331666 45.76118,-0.653955 47.37672,0.277092 0.53974,0.3112 0.36658,0.406696 0.51395,1.092188 -1.74449,2.614087 -6.2448,4.340619 -8.64049,6.742402 -1.01777,1.020574 -2.01805,2.224449 -2.42884,3.579241 -2.21516,7.305125 -0.91185,22.783321 -0.76817,30.832767 8.17444,-0.0623 16.8794,0.74261 24.98015,-0.0759 6.51284,-0.65821 7.82996,-4.633053 11.74816,-8.639446 0.82527,-0.844928 1.3208,-1.223485 2.54305,-1.289986 1.96003,2.001912 0.95054,28.661172 1.02883,33.185952 0.0332,1.90984 0.5508,4.95705 -0.97264,6.41245 -4.06005,-0.0213 -7.57759,-7.36225 -11.98211,-8.69998 -5.15151,-1.56454 -20.57839,-0.5542 -27.19623,-0.77758 l -0.23855,20.78225 c -0.0332,4.35255 -0.39053,9.00437 0.39606,13.30917 0.38039,2.08036 1.15409,4.30822 2.42515,6.07567 2.26029,3.14355 8.45444,5.31685 9.5938,8.53713 0.0866,0.24385 0.15566,0.4911 0.23395,0.73666 -3.5111,0.74005 -7.63469,0.32057 -11.23974,0.31631 l -23.53684,-0.0136 c -4.29123,0 -8.93707,-0.32314 -13.17949,0.21401 -0.59316,0.0759 -0.77461,-0.1117 -1.30422,-0.34701 l -0.41264,-1.21411 c 1.94344,-3.11116 5.91967,-4.24001 8.57233,-6.72621 1.34107,-1.25589 2.39937,-2.82212 2.89767,-4.53416 2.32108,-7.97611 1.06567,-27.65595 1.01409,-36.92719 -6.79837,-0.0409 -25.97858,-1.38121 -30.81969,2.52712 -2.18752,1.76575 -4.76834,6.04583 -7.28745,6.93595 l -0.82711,-0.48087 c -0.66962,-1.3096 -0.86488,-2.52882 -0.91646,-3.97569 -0.16579,-4.59555 0.22842,-9.21752 0.13631,-13.81733 -0.11329,-5.65362 -0.94501,-12.00809 -0.35092,-17.610566 0.1004,-0.948096 0.3104,-1.631884 1.02054,-2.348075 3.77267,-0.537992 8.86707,7.062991 13.18593,8.168811 5.27862,1.35139 20.04049,0.35128 25.89108,0.28307 0.0424,-7.670893 1.25818,-24.170511 -1.43593,-31.169549 -0.58304,-1.515931 -1.87529,-2.832351 -3.11043,-3.923691 -1.7445,-1.541509 -6.94482,-4.332081 -7.65219,-6.2513 z"
     id="path59"
     style="stroke-width:0.886173" />
  <path
     fill="#332423"
     d="m 515.6654,88.731165 c 1.55844,-0.06079 3.11872,-0.07368 4.67808,-0.03868 10.17958,0.316845 18.98126,4.120835 25.96937,11.592495 2.35884,2.52279 5.30348,6.1748 5.00045,9.83511 -0.12803,1.55383 -0.89528,2.83227 -2.14792,3.7478 -1.04633,0.76541 -4.36492,2.3045 -5.6277,2.00884 -3.54793,-0.82896 -8.76944,-10.05801 -19.33771,-11.95908 -6.21441,-1.11725 -13.12699,-0.23856 -18.29416,3.57096 -3.26516,2.41871 -5.37624,6.0873 -5.82848,10.12617 -0.35001,3.13253 0.77185,6.24757 2.75213,8.67088 6.66021,8.14865 23.53316,4.36308 33.11406,5.46559 7.64759,0.88054 16.28255,3.8786 21.11076,10.20077 4.57032,5.98415 5.57336,15.14412 4.5344,22.43249 -1.3641,9.56708 -7.06271,17.20914 -14.66793,22.87552 -12.56698,9.36445 -29.16178,11.07947 -44.27642,8.91681 -7.67706,-1.04264 -14.95806,-3.65754 -21.33458,-8.12469 -3.56728,-2.49885 -10.71012,-8.94905 -11.20842,-13.43739 -0.13723,-1.2287 0.57843,-2.4445 1.34568,-3.36096 2.22621,-2.66003 7.21192,-5.84415 10.77183,-5.94546 4.6311,-0.13079 2.672,7.04337 8.20114,11.74447 6.91442,5.88007 17.17046,7.30864 25.92793,6.73573 6.55612,-0.43013 14.40358,-2.35976 18.79613,-7.55271 2.78161,-3.28728 3.89425,-7.40074 3.3499,-11.64961 -2.26029,-17.6494 -23.19697,-12.37816 -35.30066,-14.23871 -5.38545,-0.82803 -10.33709,-2.75582 -14.60713,-6.18586 -5.62493,-4.51413 -9.15905,-11.13196 -9.78261,-18.31718 -0.77738,-8.54378 2.42331,-16.79834 7.99759,-23.20434 7.10692,-8.167975 18.15138,-13.160136 28.86427,-13.908961 z"
     id="path60"
     style="stroke-width:0.921063" />
  <path
     fill="#332423"
     d="m 283.37608,68.174882 c 1.27936,0.03776 1.95265,-0.01566 3.03214,0.761719 1.64133,2.723583 0.7258,20.46694 0.75527,24.719488 4.3336,0.142765 8.67181,0.09026 13.00081,-0.159344 4.62189,-0.304872 9.70155,-1.269225 14.2691,-0.642902 1.67726,1.404621 2.19029,4.216626 2.39477,6.310203 0.20355,2.088054 -0.3104,4.200964 -1.75371,5.766774 -4.1457,4.49663 -21.59524,2.71529 -27.99478,2.78621 l -0.26527,32.30813 c -0.0543,7.17416 -0.43843,14.59516 0.41171,21.72603 0.37948,3.18135 1.09239,6.30744 2.54122,9.18761 3.95688,7.86587 11.94618,11.22315 20.44944,9.29997 3.54333,-0.80041 8.24719,-3.89149 11.76658,-2.68214 0.81422,0.93028 1.13382,1.3991 1.13659,2.67201 0.0101,4.06465 -3.88597,7.24876 -6.63718,9.73471 -6.20797,4.79874 -12.86541,6.89968 -20.66958,7.08574 -8.68101,0.20632 -16.92545,-2.44911 -23.24947,-8.55944 -13.92923,-13.45581 -9.33313,-45.44893 -9.81945,-63.88769 -0.20263,-7.66417 -0.49829,-12.77238 -7.7268,-17.00098 -1.66159,-0.9708 -3.83254,-1.94344 -5.13861,-3.36925 -0.85935,-0.93856 -0.9358,-1.52712 -0.96251,-2.75858 2.39937,-4.663341 28.23335,-27.405307 34.45973,-33.298268 z"
     id="path61"
     style="stroke-width:0.921063" />
  <path
     fill="#332423"
     d="m 220.26116,91.031981 c 0.99199,-0.227503 1.63305,-0.23395 2.63793,-0.07092 0.67974,0.753429 0.93948,1.379752 1.0279,2.40029 0.35001,4.056361 -0.28921,8.659829 -0.2975,12.785269 l -0.0276,37.84095 c 0,10.78565 -0.78106,22.67381 1.66804,33.21906 2.27595,9.79642 12.32659,11.59342 15.05938,17.51401 -0.0857,0.0884 -0.15934,0.1879 -0.25605,0.26435 -3.14267,2.48871 -41.27468,1.21764 -47.89528,1.18909 -0.1925,-0.0129 -0.38592,-0.012 -0.57658,-0.0378 -1.31989,-0.1796 -1.79976,-0.44395 -2.64253,-1.44238 -0.3279,-3.20069 4.05728,-6.95034 5.81927,-9.5809 1.85226,-2.77884 3.12609,-5.90125 3.74689,-9.18299 1.85502,-9.53024 2.02726,-50.02662 0,-59.37172 -2.37542,-10.9542 -7.28929,-12.47027 -15.89202,-18.082306 -0.18882,-1.600808 -0.57843,-3.115035 0.20539,-4.603473 1.12923,-0.794878 1.6395,-0.78843 3.02938,-0.920142 4.99308,-0.470663 10.23117,-0.135396 15.26109,-0.264345 6.41521,-0.163949 12.77054,-0.848299 19.13232,-1.656071 z"
     id="path62"
     style="stroke-width:0.921063" />
  <path
     fill="#332423"
     d="m 208.47985,33.439756 c 9.56984,-1.218567 18.33468,5.500588 19.64443,15.058458 1.30975,9.55787 -5.32467,18.386259 -14.86964,19.788117 -9.67577,1.420279 -18.65153,-5.324665 -19.97878,-15.013327 -1.32817,-9.688661 5.50243,-18.599024 15.20399,-19.833248 z"
     id="path67"
     style="stroke-width:0.921063" />
</svg>
